<svg viewBox="0 0 128 128" xmlns="http://www.w3.org/2000/svg" xmlns:xlink="http://www.w3.org/1999/xlink"><linearGradient id="a" gradientTransform="matrix(1 0 0 -1 -47.5 2221)" gradientUnits="userSpaceOnUse" x1="143.917" x2="125.854" y1="2125.439" y2="2157.331"><stop offset="0" stop-color="#fb7655"/><stop offset=".41" stop-color="#e42b1e"/><stop offset=".99" stop-color="#900"/><stop offset="1" stop-color="#900"/></linearGradient><linearGradient id="b"><stop offset="0" stop-color="#871101"/><stop offset=".99" stop-color="#911209"/><stop offset="1" stop-color="#911209"/></linearGradient><linearGradient id="c" gradientTransform="matrix(1 0 0 -1 -47.5 2221)" gradientUnits="userSpaceOnUse" x1="152.913" x2="129.634" xlink:href="#b" y1="2152.229" y2="2167.85"/><linearGradient id="d" gradientTransform="matrix(1 0 0 -1 -47.5 2221)" gradientUnits="userSpaceOnUse" x1="134.287" x2="111.008" xlink:href="#b" y1="2124.472" y2="2140.093"/><linearGradient id="e" gradientTransform="matrix(1 0 0 -1 -47.5 2221)" gradientUnits="userSpaceOnUse" x1="85.411" x2="89.02" y1="2163.54" y2="2140.086"><stop offset="0" stop-color="#fff"/><stop offset=".23" stop-color="#e57252"/><stop offset=".46" stop-color="#de3b20"/><stop offset=".99" stop-color="#a60003"/><stop offset="1" stop-color="#a60003"/></linearGradient><linearGradient id="f" gradientTransform="matrix(1 0 0 -1 -47.5 2221)" gradientUnits="userSpaceOnUse" x1="110.233" x2="111.563" y1="2185.439" y2="2161.502"><stop offset="0" stop-color="#fff"/><stop offset=".23" stop-color="#e4714e"/><stop offset=".56" stop-color="#be1a0d"/><stop offset=".99" stop-color="#a80d00"/><stop offset="1" stop-color="#a80d00"/></linearGradient><linearGradient id="g" gradientTransform="matrix(1 0 0 -1 -47.5 2221)" gradientUnits="userSpaceOnUse" x1="132.261" x2="136.242" y1="2207.563" y2="2190.407"><stop offset="0" stop-color="#fff"/><stop offset=".18" stop-color="#e46342"/><stop offset=".4" stop-color="#c82410"/><stop offset=".99" stop-color="#a80d00"/><stop offset="1" stop-color="#a80d00"/></linearGradient><linearGradient id="h" gradientTransform="matrix(1 0 0 -1 -47.5 2221)" gradientUnits="userSpaceOnUse" x1="120.105" x2="137.258" y1="2213.604" y2="2222.18"><stop offset="0" stop-color="#fff"/><stop offset=".54" stop-color="#c81f11"/><stop offset=".99" stop-color="#bf0905"/><stop offset="1" stop-color="#bf0905"/></linearGradient><linearGradient id="i" gradientTransform="matrix(1 0 0 -1 -47.5 2221)" gradientUnits="userSpaceOnUse" x1="70.375" x2="71.787" y1="2169.518" y2="2155.382"><stop offset="0" stop-color="#fff"/><stop offset=".31" stop-color="#de4024"/><stop offset=".99" stop-color="#bf190b"/><stop offset="1" stop-color="#bf190b"/></linearGradient><linearGradient id="j" gradientTransform="matrix(1 0 0 -1 -47.5 2221)" gradientUnits="userSpaceOnUse" x1="60.669" x2="127.036" y1="2151.563" y2="2219.806"><stop offset="0" stop-color="#bd0012"/><stop offset=".07" stop-color="#fff"/><stop offset=".17" stop-color="#fff"/><stop offset=".27" stop-color="#c82f1c"/><stop offset=".33" stop-color="#820c01"/><stop offset=".46" stop-color="#a31601"/><stop offset=".72" stop-color="#b31301"/><stop offset=".99" stop-color="#e82609"/><stop offset="1" stop-color="#e82609"/></linearGradient><linearGradient id="k" gradientTransform="matrix(1 0 0 -1 -47.5 2221)" gradientUnits="userSpaceOnUse" x1="111.505" x2="91.514" y1="2144.677" y2="2149.611"><stop offset="0" stop-color="#8c0c01"/><stop offset=".54" stop-color="#990c00"/><stop offset=".99" stop-color="#a80d0e"/><stop offset="1" stop-color="#a80d0e"/></linearGradient><linearGradient id="l" gradientTransform="matrix(1 0 0 -1 -47.5 2221)" gradientUnits="userSpaceOnUse" x1="145.839" x2="128.08" y1="2168.67" y2="2184.586"><stop offset="0" stop-color="#7e110b"/><stop offset=".99" stop-color="#9e0c00"/><stop offset="1" stop-color="#9e0c00"/></linearGradient><linearGradient id="m" gradientTransform="matrix(1 0 0 -1 -47.5 2221)" gradientUnits="userSpaceOnUse" x1="152.364" x2="143.518" y1="2197.874" y2="2207.331"><stop offset="0" stop-color="#79130d"/><stop offset=".99" stop-color="#9e120b"/><stop offset="1" stop-color="#9e120b"/></linearGradient><radialGradient id="n" cx="130.847" cy="2184.281" gradientTransform="matrix(1 0 0 -1 -47.5 2221)" gradientUnits="userSpaceOnUse" r="21.762"><stop offset="0" stop-color="#a80d00"/><stop offset=".99" stop-color="#7e0e08"/><stop offset="1" stop-color="#7e0e08"/></radialGradient><radialGradient id="o" cx="100.707" cy="2155.602" gradientTransform="matrix(1 0 0 -1 -47.5 2221)" gradientUnits="userSpaceOnUse" r="28.932"><stop offset="0" stop-color="#a30c00"/><stop offset=".99" stop-color="#800e08"/><stop offset="1" stop-color="#800e08"/></radialGradient><linearGradient id="p" gradientTransform="matrix(1 0 0 -1 -47.5 2221)" gradientUnits="userSpaceOnUse" x1="80.214" x2="73.005" y1="2133.309" y2="2157.766"><stop offset="0" stop-color="#8b2114"/><stop offset=".43" stop-color="#9e100a"/><stop offset=".99" stop-color="#b3100c"/><stop offset="1" stop-color="#b3100c"/></linearGradient><linearGradient id="q" gradientTransform="matrix(1 0 0 -1 -47.5 2221)" gradientUnits="userSpaceOnUse" x1="135.518" x2="151.68" y1="2214.356" y2="2207.222"><stop offset="0" stop-color="#b31000"/><stop offset=".44" stop-color="#910f08"/><stop offset=".99" stop-color="#791c12"/><stop offset="1" stop-color="#791c12"/></linearGradient><path d="m30.217 109.422v8.547h-4.724v-22.277h6.491c3.026 0 5.266.551 6.719 1.653 1.453 1.103 2.179 2.776 2.179 5.02 0 1.311-.361 2.477-1.083 3.497-.721 1.021-1.742 1.822-3.063 2.401l6.552 9.705h-5.242l-5.317-8.547h-2.512zm0-3.84h1.524c1.492 0 2.595-.25 3.306-.747.71-.498 1.066-1.28 1.066-2.346 0-1.057-.363-1.808-1.089-2.255s-1.851-.671-3.375-.671h-1.432zm27.578 12.387-.625-2.179h-.244c-.498.793-1.205 1.404-2.118 1.836-.915.432-1.957.647-3.124.647-2.002 0-3.509-.535-4.526-1.607-1.016-1.072-1.524-2.613-1.524-4.624v-11.108h4.648v9.95c0 1.229.218 2.151.656 2.766.436.615 1.131.921 2.086.921 1.301 0 2.24-.435 2.819-1.302.579-.869.869-2.308.869-4.319v-8.015h4.647v17.035h-3.564zm17.918-17.356c2.011 0 3.586.786 4.725 2.355 1.137 1.569 1.706 3.72 1.706 6.453 0 2.813-.587 4.992-1.759 6.535-1.173 1.545-2.771 2.316-4.793 2.316-2 0-3.57-.727-4.708-2.18h-.32l-.776 1.875h-3.551v-23.707h4.647v5.516c0 .701-.062 1.823-.184 3.368h.184c1.086-1.686 2.697-2.531 4.829-2.531zm-1.493 3.719c-1.147 0-1.985.353-2.513 1.059-.528.707-.803 1.872-.823 3.498v.502c0 1.829.271 3.139.814 3.932.544.792 1.405 1.188 2.583 1.188.955 0 1.713-.44 2.278-1.318.564-.878.846-2.156.846-3.832s-.286-2.934-.854-3.772-1.345-1.257-2.331-1.257zm9.021-3.398h5.088l3.215 9.584c.275.833.463 1.818.564 2.956h.092c.111-1.046.329-2.032.654-2.956l3.154-9.584h4.983l-7.207 19.214c-.661 1.777-1.602 3.108-2.826 3.992-1.225.884-2.654 1.325-4.29 1.325-.803 0-1.59-.086-2.361-.259v-3.687c.558.131 1.167.197 1.828.197.822 0 1.541-.251 2.156-.754.615-.502 1.095-1.261 1.44-2.277l.274-.839z"/><path d="m87.524 58.767-48.886 29.028 63.3-4.294 4.875-63.828z" fill="url(#a)"/><path d="m102.041 83.457-5.441-37.552-14.818 19.57z" fill="url(#c)"/><path d="m102.114 83.457-39.858-3.129-23.405 7.385z" fill="url(#d)"/><path d="m38.906 87.722 9.957-32.62-21.91 4.686z" fill="url(#e)"/><path d="m81.777 65.582-9.162-35.887-26.219 24.577z" fill="url(#f)"/><path d="m104.734 30.201-24.785-20.243-6.901 22.313z" fill="url(#g)"/><path d="m93.142 2.741-14.576 8.056-9.197-8.164z" fill="url(#h)"/><path d="m21.188 70.73 6.107-11.137-4.941-13.267z" fill="url(#i)"/><path d="m22.026 45.905 4.97 14.098 21.595-4.845 24.655-22.913 6.958-22.1-10.955-7.737-18.627 6.971c-5.868 5.458-17.256 16.258-17.667 16.461-.406.208-7.519 13.653-10.929 20.065z" fill="#fff"/><path d="m39.477 20.581c12.719-12.611 29.115-20.061 35.407-13.712 6.289 6.348-.38 21.776-13.099 34.382-12.718 12.607-28.912 20.468-35.199 14.119-6.294-6.344.173-22.183 12.891-34.789z" fill="url(#j)"/><path d="m38.906 87.709 9.879-32.724 32.811 10.541c-11.864 11.125-25.058 20.528-42.69 22.183z" fill="url(#k)"/><path d="m73.289 32.181 8.423 33.363c9.91-10.419 18.804-21.621 23.159-35.476z" fill="url(#l)"/><path d="m104.785 30.236c3.371-10.174 4.148-24.768-11.746-27.477l-13.043 7.204z" fill="url(#m)"/><path d="m21.188 70.583c.467 16.789 12.581 17.04 17.741 17.188l-11.92-27.837z" fill="#9e1209"/><path d="m73.337 32.232c7.615 4.68 22.96 14.08 23.271 14.253.484.272 6.617-10.342 8.008-16.34z" fill="url(#n)"/><path d="m48.772 54.986 13.207 25.48c7.81-4.235 13.924-9.395 19.526-14.922z" fill="url(#o)"/><path d="m26.957 59.969-1.872 22.282c3.532 4.823 8.389 5.241 13.485 4.866-3.687-9.175-11.051-27.521-11.613-27.148z" fill="url(#p)"/><path d="m79.919 10.02 26.237 3.683c-1.401-5.935-5.701-9.763-13.03-10.961z" fill="url(#q)"/></svg>